STARTFONT 2.1
COMMENT Exported by Fony v1.4.7
FONT -Adobe-Helvetica-Medium-R-Normal--20-140-100-100-P-100-ISO10646-1
SIZE 30 100 100
FONTBOUNDINGBOX 27 29 0 18
STARTPROPERTIES 6
COPYRIGHT "Copyright (c) 1984, 1987 Adobe Systems Incorporated. All Rig"
RESOLUTION_X 100
RESOLUTION_Y 100
FONT_ASCENT 48
FONT_DESCENT -18
DEFAULT_CHAR 0
ENDPROPERTIES
CHARS 256
STARTCHAR 000
ENCODING 0
SWIDTH 1512 0
DWIDTH 21 0
BBX 0 0 0 0
BITMAP
ENDCHAR
STARTCHAR 001
ENCODING 1
SWIDTH 144 0
DWIDTH 2 0
BBX 0 0 0 0
BITMAP
ENDCHAR
STARTCHAR 002
ENCODING 2
SWIDTH 144 0
DWIDTH 2 0
BBX 0 0 0 0
BITMAP
ENDCHAR
STARTCHAR 003
ENCODING 3
SWIDTH 144 0
DWIDTH 2 0
BBX 0 0 0 0
BITMAP
ENDCHAR
STARTCHAR 004
ENCODING 4
SWIDTH 144 0
DWIDTH 2 0
BBX 0 0 0 0
BITMAP
ENDCHAR
STARTCHAR 005
ENCODING 5
SWIDTH 144 0
DWIDTH 2 0
BBX 0 0 0 0
BITMAP
ENDCHAR
STARTCHAR 006
ENCODING 6
SWIDTH 144 0
DWIDTH 2 0
BBX 0 0 0 0
BITMAP
ENDCHAR
STARTCHAR 007
ENCODING 7
SWIDTH 144 0
DWIDTH 2 0
BBX 0 0 0 0
BITMAP
ENDCHAR
STARTCHAR 008
ENCODING 8
SWIDTH 144 0
DWIDTH 2 0
BBX 0 0 0 0
BITMAP
ENDCHAR
STARTCHAR 009
ENCODING 9
SWIDTH 144 0
DWIDTH 2 0
BBX 0 0 0 0
BITMAP
ENDCHAR
STARTCHAR 010
ENCODING 10
SWIDTH 144 0
DWIDTH 2 0
BBX 0 0 0 0
BITMAP
ENDCHAR
STARTCHAR 011
ENCODING 11
SWIDTH 144 0
DWIDTH 2 0
BBX 0 0 0 0
BITMAP
ENDCHAR
STARTCHAR 012
ENCODING 12
SWIDTH 144 0
DWIDTH 2 0
BBX 0 0 0 0
BITMAP
ENDCHAR
STARTCHAR 013
ENCODING 13
SWIDTH 144 0
DWIDTH 2 0
BBX 0 0 0 0
BITMAP
ENDCHAR
STARTCHAR 014
ENCODING 14
SWIDTH 144 0
DWIDTH 2 0
BBX 0 0 0 0
BITMAP
ENDCHAR
STARTCHAR 015
ENCODING 15
SWIDTH 144 0
DWIDTH 2 0
BBX 0 0 0 0
BITMAP
ENDCHAR
STARTCHAR 016
ENCODING 16
SWIDTH 144 0
DWIDTH 2 0
BBX 0 0 0 0
BITMAP
ENDCHAR
STARTCHAR 017
ENCODING 17
SWIDTH 144 0
DWIDTH 2 0
BBX 0 0 0 0
BITMAP
ENDCHAR
STARTCHAR 018
ENCODING 18
SWIDTH 144 0
DWIDTH 2 0
BBX 0 0 0 0
BITMAP
ENDCHAR
STARTCHAR 019
ENCODING 19
SWIDTH 144 0
DWIDTH 2 0
BBX 0 0 0 0
BITMAP
ENDCHAR
STARTCHAR 020
ENCODING 20
SWIDTH 144 0
DWIDTH 2 0
BBX 0 0 0 0
BITMAP
ENDCHAR
STARTCHAR 021
ENCODING 21
SWIDTH 144 0
DWIDTH 2 0
BBX 0 0 0 0
BITMAP
ENDCHAR
STARTCHAR 022
ENCODING 22
SWIDTH 144 0
DWIDTH 2 0
BBX 0 0 0 0
BITMAP
ENDCHAR
STARTCHAR 023
ENCODING 23
SWIDTH 144 0
DWIDTH 2 0
BBX 0 0 0 0
BITMAP
ENDCHAR
STARTCHAR 024
ENCODING 24
SWIDTH 144 0
DWIDTH 2 0
BBX 0 0 0 0
BITMAP
ENDCHAR
STARTCHAR 025
ENCODING 25
SWIDTH 144 0
DWIDTH 2 0
BBX 0 0 0 0
BITMAP
ENDCHAR
STARTCHAR 026
ENCODING 26
SWIDTH 144 0
DWIDTH 2 0
BBX 0 0 0 0
BITMAP
ENDCHAR
STARTCHAR 027
ENCODING 27
SWIDTH 144 0
DWIDTH 2 0
BBX 0 0 0 0
BITMAP
ENDCHAR
STARTCHAR 028
ENCODING 28
SWIDTH 144 0
DWIDTH 2 0
BBX 0 0 0 0
BITMAP
ENDCHAR
STARTCHAR 029
ENCODING 29
SWIDTH 144 0
DWIDTH 2 0
BBX 0 0 0 0
BITMAP
ENDCHAR
STARTCHAR 030
ENCODING 30
SWIDTH 144 0
DWIDTH 2 0
BBX 0 0 0 0
BITMAP
ENDCHAR
STARTCHAR 031
ENCODING 31
SWIDTH 144 0
DWIDTH 2 0
BBX 0 0 0 0
BITMAP
ENDCHAR
STARTCHAR 032
ENCODING 32
SWIDTH 576 0
DWIDTH 8 0
BBX 0 0 0 0
BITMAP
ENDCHAR
STARTCHAR 033
ENCODING 33
SWIDTH 648 0
DWIDTH 9 0
BBX 3 21 3 24
BITMAP
E0
E0
E0
E0
E0
E0
E0
E0
E0
E0
E0
E0
C0
C0
C0
00
00
00
E0
E0
E0
ENDCHAR
STARTCHAR 034
ENCODING 34
SWIDTH 576 0
DWIDTH 8 0
BBX 8 8 0 37
BITMAP
F7
F7
F7
F7
F7
F7
F7
F7
ENDCHAR
STARTCHAR 035
ENCODING 35
SWIDTH 1080 0
DWIDTH 15 0
BBX 15 19 0 24
BITMAP
0310
0310
0310
0310
3FFE
3FFE
3FFE
0460
0460
0460
0460
0460
FFFC
FFFC
FFFC
1880
1880
1880
1880
ENDCHAR
STARTCHAR 036
ENCODING 36
SWIDTH 1080 0
DWIDTH 15 0
BBX 13 24 2 21
BITMAP
0200
0200
1FC0
7FF0
7FF0
E270
E200
E200
F200
7E00
7E00
1FC0
03F0
03F0
0238
E238
E238
F278
7FF0
7FF0
1FC0
0200
0200
0200
ENDCHAR
STARTCHAR 037
ENCODING 37
SWIDTH 1728 0
DWIDTH 24 0
BBX 21 19 2 24
BITMAP
7E0700
E38E00
E38E00
E38E00
E3B800
E3B800
E3B800
7E7000
7E7000
007000
01C7E0
01C7E0
01CE38
038E38
038E38
038E38
0E0E38
0E0E38
0E07E0
ENDCHAR
STARTCHAR 038
ENCODING 38
SWIDTH 1440 0
DWIDTH 20 0
BBX 18 19 2 24
BITMAP
1F8000
3FE000
3FE000
38E000
38E000
38E000
1F8000
3F8000
3F8000
FBEE00
E0EE00
E0EE00
E07E00
E07C00
E07C00
F8FE00
3FEF80
3FEF80
1F83C0
ENDCHAR
STARTCHAR 039
ENCODING 39
SWIDTH 288 0
DWIDTH 4 0
BBX 1 8 2 37
BITMAP
80
80
80
80
80
80
80
80
ENDCHAR
STARTCHAR 040
ENCODING 40
SWIDTH 648 0
DWIDTH 9 0
BBX 6 27 0 18
BITMAP
04
04
1C
38
38
38
E0
E0
E0
E0
E0
E0
E0
E0
E0
E0
E0
E0
E0
E0
E0
38
38
38
1C
1C
04
ENDCHAR
STARTCHAR 041
ENCODING 41
SWIDTH 648 0
DWIDTH 9 0
BBX 6 27 2 18
BITMAP
80
80
E0
70
70
70
1C
1C
1C
1C
1C
1C
1C
1C
1C
1C
1C
1C
1C
1C
1C
70
70
70
E0
E0
80
ENDCHAR
STARTCHAR 042
ENCODING 42
SWIDTH 720 0
DWIDTH 10 0
BBX 7 11 2 34
BITMAP
10
10
92
FE
FE
10
FE
FE
92
10
10
ENDCHAR
STARTCHAR 043
ENCODING 43
SWIDTH 1080 0
DWIDTH 15 0
BBX 12 15 2 24
BITMAP
0E00
0E00
0E00
0E00
0E00
0E00
FFF0
FFF0
FFF0
0E00
0E00
0E00
0E00
0E00
0E00
ENDCHAR
STARTCHAR 044
ENCODING 44
SWIDTH 576 0
DWIDTH 8 0
BBX 3 8 2 19
BITMAP
E0
E0
E0
20
20
20
C0
C0
ENDCHAR
STARTCHAR 045
ENCODING 45
SWIDTH 648 0
DWIDTH 9 0
BBX 8 2 0 31
BITMAP
FF
FF
ENDCHAR
STARTCHAR 046
ENCODING 46
SWIDTH 576 0
DWIDTH 8 0
BBX 3 3 2 24
BITMAP
E0
E0
E0
ENDCHAR
STARTCHAR 047
ENCODING 47
SWIDTH 576 0
DWIDTH 8 0
BBX 8 21 0 24
BITMAP
07
07
07
07
07
07
0E
0E
0E
0E
0E
38
38
38
38
F0
F0
F0
F0
F0
F0
ENDCHAR
STARTCHAR 048
ENCODING 48
SWIDTH 1080 0
DWIDTH 15 0
BBX 12 19 2 24
BITMAP
1F80
7FC0
7FC0
71C0
E070
E070
E070
E070
E070
E070
E070
E070
E070
E070
E070
71C0
7FC0
7FC0
1F80
ENDCHAR
STARTCHAR 049
ENCODING 49
SWIDTH 1080 0
DWIDTH 15 0
BBX 8 19 3 24
BITMAP
07
FF
FF
FF
07
07
07
07
07
07
07
07
07
07
07
07
07
07
07
ENDCHAR
STARTCHAR 050
ENCODING 50
SWIDTH 1080 0
DWIDTH 15 0
BBX 12 19 2 24
BITMAP
1F80
FFC0
FFC0
E070
0070
0070
01F0
03C0
03C0
0F80
1E00
1E00
7C00
F000
F000
E000
FFF0
FFF0
FFF0
ENDCHAR
STARTCHAR 051
ENCODING 51
SWIDTH 1080 0
DWIDTH 15 0
BBX 12 19 2 24
BITMAP
1FC0
7FF0
7FF0
E070
E070
E070
01C0
0F80
0F80
0FC0
01F0
01F0
0070
E070
E070
E1F0
7FC0
7FC0
1F80
ENDCHAR
STARTCHAR 052
ENCODING 52
SWIDTH 1080 0
DWIDTH 15 0
BBX 14 19 0 24
BITMAP
0070
00F0
00F0
03F0
0770
0770
1C70
1C70
1C70
3870
E070
E070
FFFC
FFFC
FFFC
0070
0070
0070
0070
ENDCHAR
STARTCHAR 053
ENCODING 53
SWIDTH 1080 0
DWIDTH 15 0
BBX 12 19 2 24
BITMAP
FFC0
FFC0
FFC0
E000
E000
E000
FF80
FFC0
FFC0
E1F0
0070
0070
0070
E070
E070
E1F0
FFC0
FFC0
7F80
ENDCHAR
STARTCHAR 054
ENCODING 54
SWIDTH 1080 0
DWIDTH 15 0
BBX 12 19 2 24
BITMAP
1F80
7FF0
7FF0
7070
E000
E000
E000
EF80
EF80
FFC0
E070
E070
E070
E070
E070
F070
7FC0
7FC0
1F80
ENDCHAR
STARTCHAR 055
ENCODING 55
SWIDTH 1080 0
DWIDTH 15 0
BBX 12 19 2 24
BITMAP
FFF0
FFF0
FFF0
0070
01C0
01C0
0380
0380
0380
0E00
0E00
0E00
1C00
1C00
1C00
7000
7000
7000
7000
ENDCHAR
STARTCHAR 056
ENCODING 56
SWIDTH 1080 0
DWIDTH 15 0
BBX 12 19 2 24
BITMAP
1F80
7FC0
7FC0
F1F0
E070
E070
E070
71C0
71C0
7FC0
F1F0
F1F0
E070
E070
E070
F1F0
7FC0
7FC0
1F80
ENDCHAR
STARTCHAR 057
ENCODING 57
SWIDTH 1080 0
DWIDTH 15 0
BBX 12 19 2 24
BITMAP
1F80
7FC0
7FC0
E1F0
E070
E070
E070
E070
E070
7FF0
1E70
1E70
0070
0070
0070
E1C0
FFC0
FFC0
7F80
ENDCHAR
STARTCHAR 058
ENCODING 58
SWIDTH 576 0
DWIDTH 8 0
BBX 3 15 2 24
BITMAP
E0
E0
E0
00
00
00
00
00
00
00
00
00
E0
E0
E0
ENDCHAR
STARTCHAR 059
ENCODING 59
SWIDTH 576 0
DWIDTH 8 0
BBX 3 20 2 19
BITMAP
E0
E0
E0
00
00
00
00
00
00
00
00
00
E0
E0
E0
20
20
20
C0
C0
ENDCHAR
STARTCHAR 060
ENCODING 60
SWIDTH 1080 0
DWIDTH 15 0
BBX 12 13 2 24
BITMAP
0070
03F0
03F0
1F80
7C00
7C00
E000
7C00
7C00
1F80
03F0
03F0
0070
ENDCHAR
STARTCHAR 061
ENCODING 61
SWIDTH 1152 0
DWIDTH 16 0
BBX 11 7 3 27
BITMAP
FFE0
FFE0
FFE0
0000
FFE0
FFE0
FFE0
ENDCHAR
STARTCHAR 062
ENCODING 62
SWIDTH 1080 0
DWIDTH 15 0
BBX 12 13 2 24
BITMAP
E000
FC00
FC00
1F80
03C0
03C0
0070
03C0
03C0
1F80
FC00
FC00
E000
ENDCHAR
STARTCHAR 063
ENCODING 63
SWIDTH 1080 0
DWIDTH 15 0
BBX 10 21 2 24
BITMAP
7F80
7F80
FFC0
E1C0
E1C0
E1C0
03C0
03C0
0F80
1E00
1E00
1C00
1C00
1C00
1C00
0000
0000
0000
1C00
1C00
1C00
ENDCHAR
STARTCHAR 064
ENCODING 64
SWIDTH 1944 0
DWIDTH 27 0
BBX 24 26 2 19
BITMAP
007FC0
007FC0
03FFF8
0F803C
0F803C
1C001C
707EC7
707EC7
71F7C7
E1C1C7
E1C1C7
E38707
E3871C
E3871C
E3871C
E38E38
E38E38
E3FFE0
71F7C0
71F7C0
7C0000
1E0000
1E0000
0FFFC0
01FF00
01FF00
ENDCHAR
STARTCHAR 065
ENCODING 65
SWIDTH 1440 0
DWIDTH 20 0
BBX 19 21 0 24
BITMAP
00E000
00E000
00E000
01F800
01F800
01F800
071C00
071C00
071C00
0E0700
0E0700
0E0700
0FFF00
0FFF00
3FFF80
380380
380380
380380
F000E0
F000E0
F000E0
ENDCHAR
STARTCHAR 066
ENCODING 66
SWIDTH 1440 0
DWIDTH 20 0
BBX 17 21 2 24
BITMAP
FFF000
FFF000
FFFC00
E01E00
E01E00
E00E00
E00E00
E00E00
E01C00
FFFC00
FFFC00
FFFE00
E00F80
E00F80
E00380
E00380
E00380
E00F80
FFFE00
FFFE00
FFFC00
ENDCHAR
STARTCHAR 067
ENCODING 67
SWIDTH 1512 0
DWIDTH 21 0
BBX 18 21 2 24
BITMAP
03F800
03F800
1FFF00
7C07C0
7C07C0
7001C0
F00000
F00000
E00000
E00000
E00000
E00000
E00000
E00000
F00000
7001C0
7001C0
7C07C0
1FFF00
1FFF00
03F800
ENDCHAR
STARTCHAR 068
ENCODING 68
SWIDTH 1512 0
DWIDTH 21 0
BBX 18 21 2 24
BITMAP
FFF800
FFF800
FFFE00
E00F00
E00F00
E00700
E001C0
E001C0
E001C0
E001C0
E001C0
E001C0
E001C0
E001C0
E001C0
E00700
E00700
E00F00
FFFE00
FFFE00
FFF800
ENDCHAR
STARTCHAR 069
ENCODING 69
SWIDTH 1440 0
DWIDTH 20 0
BBX 15 21 4 24
BITMAP
FFFE
FFFE
FFFE
E000
E000
E000
E000
E000
E000
FFF8
FFF8
FFF8
E000
E000
E000
E000
E000
E000
FFFE
FFFE
FFFE
ENDCHAR
STARTCHAR 070
ENCODING 70
SWIDTH 1296 0
DWIDTH 18 0
BBX 14 21 3 24
BITMAP
FFFC
FFFC
FFFC
E000
E000
E000
E000
E000
E000
FFF0
FFF0
FFF0
E000
E000
E000
E000
E000
E000
E000
E000
E000
ENDCHAR
STARTCHAR 071
ENCODING 71
SWIDTH 1584 0
DWIDTH 22 0
BBX 19 21 2 24
BITMAP
03FE00
03FE00
1FFFC0
7C01E0
7C01E0
7000E0
F000E0
F000E0
E00000
E00000
E00000
E00FE0
E00FE0
E00FE0
F000E0
7000E0
7000E0
7C01E0
1FFFE0
1FFFE0
03FEE0
ENDCHAR
STARTCHAR 072
ENCODING 72
SWIDTH 1512 0
DWIDTH 21 0
BBX 16 21 2 24
BITMAP
E007
E007
E007
E007
E007
E007
E007
E007
E007
FFFF
FFFF
FFFF
E007
E007
E007
E007
E007
E007
E007
E007
E007
ENDCHAR
STARTCHAR 073
ENCODING 73
SWIDTH 648 0
DWIDTH 9 0
BBX 3 21 3 24
BITMAP
E0
E0
E0
E0
E0
E0
E0
E0
E0
E0
E0
E0
E0
E0
E0
E0
E0
E0
E0
E0
E0
ENDCHAR
STARTCHAR 074
ENCODING 74
SWIDTH 1080 0
DWIDTH 15 0
BBX 12 21 0 24
BITMAP
0070
0070
0070
0070
0070
0070
0070
0070
0070
0070
0070
0070
0070
0070
E070
E070
E070
F8F0
3FE0
3FE0
1F80
ENDCHAR
STARTCHAR 075
ENCODING 75
SWIDTH 1512 0
DWIDTH 21 0
BBX 18 21 3 24
BITMAP
E00F80
E00F80
E01E00
E07C00
E07C00
E0F000
E3E000
E3E000
E78000
FF0000
FF0000
FF8000
E3E000
E3E000
E0F000
E07C00
E07C00
E01E00
E00F80
E00F80
E003C0
ENDCHAR
STARTCHAR 076
ENCODING 76
SWIDTH 1152 0
DWIDTH 16 0
BBX 13 21 2 24
BITMAP
E000
E000
E000
E000
E000
E000
E000
E000
E000
E000
E000
E000
E000
E000
E000
E000
E000
E000
FFF8
FFF8
FFF8
ENDCHAR
STARTCHAR 077
ENCODING 77
SWIDTH 1728 0
DWIDTH 24 0
BBX 21 21 2 24
BITMAP
E00038
E00038
E00038
F000F8
F000F8
F000F8
FC01F8
FC01F8
FC01F8
EE0738
EE0738
EE0738
E38E38
E38E38
E38E38
E18838
E18838
E1F838
E07038
E07038
E07038
ENDCHAR
STARTCHAR 078
ENCODING 78
SWIDTH 1512 0
DWIDTH 21 0
BBX 16 21 2 24
BITMAP
E007
E007
F007
FC07
FC07
FC07
EE07
EE07
E387
E387
E387
E1C7
E1C7
E1C7
E077
E03F
E03F
E03F
E00F
E00F
E007
ENDCHAR
STARTCHAR 079
ENCODING 79
SWIDTH 1584 0
DWIDTH 22 0
BBX 19 21 2 24
BITMAP
03F800
03F800
1FFF00
7C07C0
7C07C0
7001C0
F001E0
F001E0
E000E0
E000E0
E000E0
E000E0
E000E0
E000E0
F001E0
7001C0
7001C0
7C07C0
1FFF00
1FFF00
03F800
ENDCHAR
STARTCHAR 080
ENCODING 80
SWIDTH 1440 0
DWIDTH 20 0
BBX 15 21 4 24
BITMAP
FFF0
FFF0
FFF8
E03E
E03E
E00E
E00E
E00E
E03E
FFF8
FFF8
FFF0
E000
E000
E000
E000
E000
E000
E000
E000
E000
ENDCHAR
STARTCHAR 081
ENCODING 81
SWIDTH 1584 0
DWIDTH 22 0
BBX 19 23 2 22
BITMAP
03F800
03F800
1FFF00
7C07C0
7C07C0
7001C0
F001E0
F001E0
E000E0
E000E0
E000E0
E000E0
E000E0
E000E0
F039E0
7039C0
7039C0
7C0FC0
1FFF00
1FFF00
03F9C0
0001C0
0001C0
ENDCHAR
STARTCHAR 082
ENCODING 82
SWIDTH 1512 0
DWIDTH 21 0
BBX 16 21 2 24
BITMAP
FFF8
FFF8
FFFE
E00F
E00F
E007
E007
E007
E00F
FFFE
FFFE
FFF8
E00E
E00E
E00E
E007
E007
E007
E007
E007
E007
ENDCHAR
STARTCHAR 083
ENCODING 83
SWIDTH 1440 0
DWIDTH 20 0
BBX 15 21 2 24
BITMAP
07E0
07E0
3FFC
F81E
F81E
E00E
F800
F800
3F80
07F0
07F0
007C
001E
001E
000E
E00E
E00E
F81E
3FFC
3FFC
1FF0
ENDCHAR
STARTCHAR 084
ENCODING 84
SWIDTH 1296 0
DWIDTH 18 0
BBX 15 21 2 24
BITMAP
FFFE
FFFE
FFFE
0380
0380
0380
0380
0380
0380
0380
0380
0380
0380
0380
0380
0380
0380
0380
0380
0380
0380
ENDCHAR
STARTCHAR 085
ENCODING 85
SWIDTH 1512 0
DWIDTH 21 0
BBX 16 21 2 24
BITMAP
E007
E007
E007
E007
E007
E007
E007
E007
E007
E007
E007
E007
E007
E007
E007
E007
E007
700E
7FFE
7FFE
0FF0
ENDCHAR
STARTCHAR 086
ENCODING 86
SWIDTH 1440 0
DWIDTH 20 0
BBX 19 21 0 24
BITMAP
F000E0
F000E0
F000E0
380380
380380
380380
380380
380380
0E0700
0E0700
0E0700
0E0700
071C00
071C00
071C00
071C00
071C00
01F800
01F800
01F800
00E000
ENDCHAR
STARTCHAR 087
ENCODING 87
SWIDTH 1944 0
DWIDTH 27 0
BBX 24 21 2 24
BITMAP
E03807
E03807
E03807
E03807
E03807
E07E07
707E1C
707E1C
70461C
71C71C
71C71C
71C71C
1DC738
1DC738
1DC738
1D8138
1D8138
0F81E0
0E00E0
0E00E0
0E00E0
ENDCHAR
STARTCHAR 088
ENCODING 88
SWIDTH 1440 0
DWIDTH 20 0
BBX 17 21 2 24
BITMAP
E00380
E00380
E00380
380E00
380E00
3C1E00
1C1C00
1C1C00
077000
03E000
03E000
03E000
077000
077000
1C1C00
3C1E00
3C1E00
380E00
E00380
E00380
E00380
ENDCHAR
STARTCHAR 089
ENCODING 89
SWIDTH 1440 0
DWIDTH 20 0
BBX 19 21 0 24
BITMAP
F000E0
F000E0
F000E0
380380
380380
380380
0E0700
0E0700
0F1F00
071C00
071C00
01F800
00E000
00E000
00E000
00E000
00E000
00E000
00E000
00E000
00E000
ENDCHAR
STARTCHAR 090
ENCODING 90
SWIDTH 1296 0
DWIDTH 18 0
BBX 15 21 2 24
BITMAP
FFFE
FFFE
FFFE
000E
000E
0038
0070
0070
01C0
0380
0380
0F80
0E00
0E00
1C00
7000
7000
E000
FFFE
FFFE
FFFE
ENDCHAR
STARTCHAR 091
ENCODING 91
SWIDTH 576 0
DWIDTH 8 0
BBX 7 27 0 18
BITMAP
FE
FE
FE
F0
F0
F0
F0
F0
F0
F0
F0
F0
F0
F0
F0
F0
F0
F0
F0
F0
F0
F0
F0
F0
FE
FE
FE
ENDCHAR
STARTCHAR 092
ENCODING 92
SWIDTH 576 0
DWIDTH 8 0
BBX 8 21 0 24
BITMAP
F0
F0
F0
F0
F0
38
38
38
38
0E
0E
0E
0E
0E
0E
07
07
07
07
07
07
ENDCHAR
STARTCHAR 093
ENCODING 93
SWIDTH 576 0
DWIDTH 8 0
BBX 7 27 0 18
BITMAP
FE
FE
FE
0E
0E
0E
0E
0E
0E
0E
0E
0E
0E
0E
0E
0E
0E
0E
0E
0E
0E
0E
0E
0E
FE
FE
FE
ENDCHAR
STARTCHAR 094
ENCODING 94
SWIDTH 1008 0
DWIDTH 14 0
BBX 11 9 2 34
BITMAP
0400
1F00
1F00
3B80
3B80
3B80
E0E0
E0E0
E0E0
ENDCHAR
STARTCHAR 095
ENCODING 95
SWIDTH 1152 0
DWIDTH 16 0
BBX 16 3 0 18
BITMAP
FFFF
FFFF
FFFF
ENDCHAR
STARTCHAR 096
ENCODING 96
SWIDTH 432 0
DWIDTH 6 0
BBX 6 5 0 40
BITMAP
E0
E0
38
1C
1C
ENDCHAR
STARTCHAR 097
ENCODING 97
SWIDTH 1152 0
DWIDTH 16 0
BBX 13 15 2 24
BITMAP
7FC0
7FC0
F1F0
E070
E070
01F0
7FF0
7FF0
F070
E070
E070
E070
F1F8
F1F8
7E38
ENDCHAR
STARTCHAR 098
ENCODING 98
SWIDTH 1152 0
DWIDTH 16 0
BBX 13 21 2 24
BITMAP
E000
E000
E000
E000
E000
E000
EFC0
EFC0
FFF0
F070
F070
E038
E038
E038
E038
E038
E038
F070
FFF0
FFF0
EFC0
ENDCHAR
STARTCHAR 099
ENCODING 99
SWIDTH 1080 0
DWIDTH 15 0
BBX 12 15 2 24
BITMAP
1FC0
1FC0
7FF0
7070
7070
E000
E000
E000
E000
E000
E000
7070
7FF0
7FF0
1FC0
ENDCHAR
STARTCHAR 100
ENCODING 100
SWIDTH 1152 0
DWIDTH 16 0
BBX 13 21 2 24
BITMAP
0038
0038
0038
0038
0038
0038
1FB8
1FB8
7FF8
7078
7078
E038
E038
E038
E038
E038
E038
7078
7FF8
7FF8
1FB8
ENDCHAR
STARTCHAR 101
ENCODING 101
SWIDTH 1080 0
DWIDTH 15 0
BBX 12 15 2 24
BITMAP
1F80
1F80
7FC0
E070
E070
E070
FFF0
FFF0
E000
E000
E000
F070
7FF0
7FF0
1F80
ENDCHAR
STARTCHAR 102
ENCODING 102
SWIDTH 648 0
DWIDTH 9 0
BBX 9 21 0 24
BITMAP
0780
0780
1F80
1C00
1C00
1C00
FF80
FF80
FF80
1C00
1C00
1C00
1C00
1C00
1C00
1C00
1C00
1C00
1C00
1C00
1C00
ENDCHAR
STARTCHAR 103
ENCODING 103
SWIDTH 1152 0
DWIDTH 16 0
BBX 13 21 2 18
BITMAP
1FB8
1FB8
7FF8
7038
7038
E038
E038
E038
E038
E038
E038
7078
7FF8
7FF8
1FB8
0038
0038
7070
7FF0
7FF0
0F80
ENDCHAR
STARTCHAR 104
ENCODING 104
SWIDTH 1080 0
DWIDTH 15 0
BBX 12 21 2 24
BITMAP
E000
E000
E000
E000
E000
E000
EFC0
EFC0
FFF0
F070
F070
E070
E070
E070
E070
E070
E070
E070
E070
E070
E070
ENDCHAR
STARTCHAR 105
ENCODING 105
SWIDTH 432 0
DWIDTH 6 0
BBX 3 21 2 24
BITMAP
E0
E0
E0
00
00
00
E0
E0
E0
E0
E0
E0
E0
E0
E0
E0
E0
E0
E0
E0
E0
ENDCHAR
STARTCHAR 106
ENCODING 106
SWIDTH 432 0
DWIDTH 6 0
BBX 5 27 0 18
BITMAP
38
38
38
00
00
00
38
38
38
38
38
38
38
38
38
38
38
38
38
38
38
38
38
38
F8
F8
E0
ENDCHAR
STARTCHAR 107
ENCODING 107
SWIDTH 1008 0
DWIDTH 14 0
BBX 12 21 2 24
BITMAP
E000
E000
E000
E000
E000
E000
E0E0
E0E0
E380
E700
E700
FC00
FF00
FF00
E700
E380
E380
E3E0
E0E0
E0E0
E0F0
ENDCHAR
STARTCHAR 108
ENCODING 108
SWIDTH 432 0
DWIDTH 6 0
BBX 3 21 2 24
BITMAP
E0
E0
E0
E0
E0
E0
E0
E0
E0
E0
E0
E0
E0
E0
E0
E0
E0
E0
E0
E0
E0
ENDCHAR
STARTCHAR 109
ENCODING 109
SWIDTH 1728 0
DWIDTH 24 0
BBX 21 15 2 24
BITMAP
EFC7E0
EFC7E0
FFFFF8
F07838
F07838
E07038
E07038
E07038
E07038
E07038
E07038
E07038
E07038
E07038
E07038
ENDCHAR
STARTCHAR 110
ENCODING 110
SWIDTH 1080 0
DWIDTH 15 0
BBX 12 15 2 24
BITMAP
EFC0
EFC0
FFF0
F070
F070
E070
E070
E070
E070
E070
E070
E070
E070
E070
E070
ENDCHAR
STARTCHAR 111
ENCODING 111
SWIDTH 1152 0
DWIDTH 16 0
BBX 13 15 2 24
BITMAP
1FC0
1FC0
7FF0
7070
7070
E038
E038
E038
E038
E038
E038
7070
7FF0
7FF0
1FC0
ENDCHAR
STARTCHAR 112
ENCODING 112
SWIDTH 1152 0
DWIDTH 16 0
BBX 13 21 2 18
BITMAP
EFC0
EFC0
FFF0
F070
F070
E038
E038
E038
E038
E038
E038
F070
FFF0
FFF0
EFC0
E000
E000
E000
E000
E000
E000
ENDCHAR
STARTCHAR 113
ENCODING 113
SWIDTH 1152 0
DWIDTH 16 0
BBX 13 21 2 18
BITMAP
1FB8
1FB8
7FF8
7078
7078
E038
E038
E038
E038
E038
E038
7078
7FF8
7FF8
1FB8
0038
0038
0038
0038
0038
0038
ENDCHAR
STARTCHAR 114
ENCODING 114
SWIDTH 648 0
DWIDTH 9 0
BBX 7 15 2 24
BITMAP
EE
EE
EE
F0
F0
E0
E0
E0
E0
E0
E0
E0
E0
E0
E0
ENDCHAR
STARTCHAR 115
ENCODING 115
SWIDTH 1008 0
DWIDTH 14 0
BBX 11 15 2 24
BITMAP
1F80
1F80
3FE0
E0E0
E0E0
E000
FF80
FF80
1FE0
00E0
00E0
E0E0
FF80
FF80
3F00
ENDCHAR
STARTCHAR 116
ENCODING 116
SWIDTH 648 0
DWIDTH 9 0
BBX 9 19 0 24
BITMAP
1C00
1C00
1C00
1C00
FF80
FF80
FF80
1C00
1C00
1C00
1C00
1C00
1C00
1C00
1C00
1C00
1F80
1F80
0780
ENDCHAR
STARTCHAR 117
ENCODING 117
SWIDTH 1080 0
DWIDTH 15 0
BBX 12 15 2 24
BITMAP
E070
E070
E070
E070
E070
E070
E070
E070
E070
E070
E070
E1F0
FFF0
FFF0
7E70
ENDCHAR
STARTCHAR 118
ENCODING 118
SWIDTH 1080 0
DWIDTH 15 0
BBX 12 15 2 24
BITMAP
E070
E070
E070
E070
E070
71C0
71C0
71C0
71C0
1180
1180
1F80
0E00
0E00
0E00
ENDCHAR
STARTCHAR 119
ENCODING 119
SWIDTH 1512 0
DWIDTH 21 0
BBX 18 15 2 24
BITMAP
E1C1C0
E1C1C0
E1C1C0
E1C1C0
E1C1C0
71C700
71C700
71C700
723700
123600
123600
1E3E00
0E3800
0E3800
0E3800
ENDCHAR
STARTCHAR 120
ENCODING 120
SWIDTH 1080 0
DWIDTH 15 0
BBX 12 15 2 24
BITMAP
E070
E070
F1F0
71C0
71C0
1F80
0E00
0E00
0E00
1F80
1F80
71C0
F1F0
F1F0
E070
ENDCHAR
STARTCHAR 121
ENCODING 121
SWIDTH 1080 0
DWIDTH 15 0
BBX 12 21 2 18
BITMAP
E070
E070
E070
E070
E070
71C0
71C0
71C0
71C0
1180
1180
1F80
0E00
0E00
0E00
0E00
0E00
0E00
7C00
7C00
7C00
ENDCHAR
STARTCHAR 122
ENCODING 122
SWIDTH 1008 0
DWIDTH 14 0
BBX 11 15 2 24
BITMAP
FFE0
FFE0
FFE0
00E0
00E0
0380
0700
0700
1C00
3800
3800
E000
FFE0
FFE0
FFE0
ENDCHAR
STARTCHAR 123
ENCODING 123
SWIDTH 648 0
DWIDTH 9 0
BBX 8 27 0 18
BITMAP
07
07
1C
38
38
38
38
38
38
38
38
E0
C0
C0
E0
38
38
38
38
38
38
38
38
38
1C
1C
07
ENDCHAR
STARTCHAR 124
ENCODING 124
SWIDTH 576 0
DWIDTH 8 0
BBX 3 27 2 18
BITMAP
E0
E0
E0
E0
E0
E0
E0
E0
E0
E0
E0
E0
E0
E0
E0
E0
E0
E0
E0
E0
E0
E0
E0
E0
E0
E0
E0
ENDCHAR
STARTCHAR 125
ENCODING 125
SWIDTH 648 0
DWIDTH 9 0
BBX 9 27 0 18
BITMAP
E000
E000
3800
1C00
1C00
1C00
1C00
1C00
1C00
1C00
1C00
0700
0380
0380
0700
1C00
1C00
1C00
1C00
1C00
1C00
1C00
1C00
1C00
3800
3800
E000
ENDCHAR
STARTCHAR 126
ENCODING 126
SWIDTH 1080 0
DWIDTH 15 0
BBX 12 4 2 30
BITMAP
7C70
FFF0
FFF0
E3C0
ENDCHAR
STARTCHAR 127
ENCODING 127
SWIDTH 144 0
DWIDTH 2 0
BBX 0 0 0 0
BITMAP
ENDCHAR
STARTCHAR 128
ENCODING 128
SWIDTH 144 0
DWIDTH 2 0
BBX 0 0 0 0
BITMAP
ENDCHAR
STARTCHAR 129
ENCODING 129
SWIDTH 144 0
DWIDTH 2 0
BBX 0 0 0 0
BITMAP
ENDCHAR
STARTCHAR 130
ENCODING 130
SWIDTH 144 0
DWIDTH 2 0
BBX 0 0 0 0
BITMAP
ENDCHAR
STARTCHAR 131
ENCODING 131
SWIDTH 144 0
DWIDTH 2 0
BBX 0 0 0 0
BITMAP
ENDCHAR
STARTCHAR 132
ENCODING 132
SWIDTH 144 0
DWIDTH 2 0
BBX 0 0 0 0
BITMAP
ENDCHAR
STARTCHAR 133
ENCODING 133
SWIDTH 144 0
DWIDTH 2 0
BBX 0 0 0 0
BITMAP
ENDCHAR
STARTCHAR 134
ENCODING 134
SWIDTH 1440 0
DWIDTH 20 0
BBX 19 22 0 24
BITMAP
300000
30E000
30E000
30E000
31F800
31F800
01F800
071C00
071C00
071C00
0E0700
0E0700
0E0700
0FFF00
0FFF00
3FFF80
380380
380380
380380
F000E0
F000E0
F000E0
ENDCHAR
STARTCHAR 135
ENCODING 135
SWIDTH 144 0
DWIDTH 2 0
BBX 0 0 0 0
BITMAP
ENDCHAR
STARTCHAR 136
ENCODING 136
SWIDTH 1440 0
DWIDTH 20 0
BBX 19 24 0 24
BITMAP
C00000
C00000
C00000
CFFFE0
CFFFE0
CFFFE0
0E0000
0E0000
0E0000
0E0000
0E0000
0E0000
0FFF80
0FFF80
0FFF80
0E0000
0E0000
0E0000
0E0000
0E0000
0E0000
0FFFE0
0FFFE0
0FFFE0
ENDCHAR
STARTCHAR 137
ENCODING 137
SWIDTH 1512 0
DWIDTH 21 0
BBX 20 24 0 24
BITMAP
C00000
C00000
C00000
DC0070
DC0070
DC0070
1C0070
1C0070
1C0070
1C0070
1C0070
1C0070
1FFFF0
1FFFF0
1FFFF0
1C0070
1C0070
1C0070
1C0070
1C0070
1C0070
1C0070
1C0070
1C0070
ENDCHAR
STARTCHAR 138
ENCODING 138
SWIDTH 720 0
DWIDTH 10 0
BBX 8 24 0 24
BITMAP
C0
C0
C0
C7
C7
C7
C7
C7
07
07
07
07
07
07
07
07
07
07
07
07
07
07
07
07
ENDCHAR
STARTCHAR 139
ENCODING 139
SWIDTH 144 0
DWIDTH 2 0
BBX 0 0 0 0
BITMAP
ENDCHAR
STARTCHAR 140
ENCODING 140
SWIDTH 1584 0
DWIDTH 22 0
BBX 21 24 0 24
BITMAP
C00000
C00000
200000
20FE00
20FE00
07FFC0
1F01F0
1F01F0
1C0070
3C0078
3C0078
380038
380038
380038
380038
380038
380038
3C0078
1C0070
1C0070
1F01F0
07FFC0
07FFC0
00FE00
ENDCHAR
STARTCHAR 141
ENCODING 141
SWIDTH 144 0
DWIDTH 2 0
BBX 0 0 0 0
BITMAP
ENDCHAR
STARTCHAR 142
ENCODING 142
SWIDTH 1512 0
DWIDTH 21 0
BBX 21 24 0 24
BITMAP
C00000
C00000
C00000
DC0038
DC0038
DC0038
070070
070070
070070
0381C0
0381C0
03E3C0
00E380
00E380
007E00
001C00
001C00
001C00
001C00
001C00
001C00
001C00
001C00
001C00
ENDCHAR
STARTCHAR 143
ENCODING 143
SWIDTH 1440 0
DWIDTH 20 0
BBX 17 24 0 24
BITMAP
C00000
C00000
C00000
31F800
31F800
07FC00
0E0700
0E0700
380380
380380
380380
380380
380380
380380
380380
380380
380380
0E0700
071C00
071C00
011800
3F1F80
3F1F80
3F1F80
ENDCHAR
STARTCHAR 144
ENCODING 144
SWIDTH 144 0
DWIDTH 2 0
BBX 0 0 0 0
BITMAP
ENDCHAR
STARTCHAR 145
ENCODING 145
SWIDTH 1440 0
DWIDTH 20 0
BBX 19 21 0 24
BITMAP
00E000
00E000
00E000
01F800
01F800
01F800
071C00
071C00
071C00
0E0700
0E0700
0E0700
0FFF00
0FFF00
3FFF80
380380
380380
380380
F000E0
F000E0
F000E0
ENDCHAR
STARTCHAR 146
ENCODING 146
SWIDTH 1440 0
DWIDTH 20 0
BBX 17 21 2 24
BITMAP
FFF000
FFF000
FFFC00
E01E00
E01E00
E00E00
E00E00
E00E00
E01C00
FFFC00
FFFC00
FFFE00
E00F80
E00F80
E00380
E00380
E00380
E00F80
FFFE00
FFFE00
FFFC00
ENDCHAR
STARTCHAR 147
ENCODING 147
SWIDTH 1008 0
DWIDTH 14 0
BBX 12 21 2 24
BITMAP
FFF0
FFF0
FFF0
E000
E000
E000
E000
E000
E000
E000
E000
E000
E000
E000
E000
E000
E000
E000
E000
E000
E000
ENDCHAR
STARTCHAR 148
ENCODING 148
SWIDTH 1296 0
DWIDTH 18 0
BBX 17 22 0 24
BITMAP
008000
03E000
03E000
03E000
077000
077000
077000
041000
041000
1C1C00
1C1C00
1C1C00
180C00
380E00
380E00
380E00
200200
200200
E00380
FFFF80
FFFF80
FFFF80
ENDCHAR
STARTCHAR 149
ENCODING 149
SWIDTH 1440 0
DWIDTH 20 0
BBX 15 21 4 24
BITMAP
FFFE
FFFE
FFFE
E000
E000
E000
E000
E000
E000
FFF8
FFF8
FFF8
E000
E000
E000
E000
E000
E000
FFFE
FFFE
FFFE
ENDCHAR
STARTCHAR 150
ENCODING 150
SWIDTH 1296 0
DWIDTH 18 0
BBX 15 21 2 24
BITMAP
FFFE
FFFE
FFFE
000E
000E
0038
0070
0070
01C0
0380
0380
0F80
0E00
0E00
1C00
7000
7000
E000
FFFE
FFFE
FFFE
ENDCHAR
STARTCHAR 151
ENCODING 151
SWIDTH 1512 0
DWIDTH 21 0
BBX 16 21 2 24
BITMAP
E007
E007
E007
E007
E007
E007
E007
E007
E007
FFFF
FFFF
FFFF
E007
E007
E007
E007
E007
E007
E007
E007
E007
ENDCHAR
STARTCHAR 152
ENCODING 152
SWIDTH 1080 0
DWIDTH 15 0
BBX 14 21 0 24
BITMAP
3FF0
3FF0
FFFC
E01C
E01C
E01C
E01C
E01C
E01C
FFFC
FFFC
FFFC
E01C
E01C
E01C
E01C
E01C
E01C
FFFC
FFFC
3FF0
ENDCHAR
STARTCHAR 153
ENCODING 153
SWIDTH 648 0
DWIDTH 9 0
BBX 3 21 3 24
BITMAP
E0
E0
E0
E0
E0
E0
E0
E0
E0
E0
E0
E0
E0
E0
E0
E0
E0
E0
E0
E0
E0
ENDCHAR
STARTCHAR 154
ENCODING 154
SWIDTH 1512 0
DWIDTH 21 0
BBX 18 21 3 24
BITMAP
E00F80
E00F80
E01E00
E07C00
E07C00
E0F000
E3E000
E3E000
E78000
FF0000
FF0000
FF8000
E3E000
E3E000
E0F000
E07C00
E07C00
E01E00
E00F80
E00F80
E003C0
ENDCHAR
STARTCHAR 155
ENCODING 155
SWIDTH 1296 0
DWIDTH 18 0
BBX 17 22 0 24
BITMAP
008000
03E000
03E000
03E000
077000
077000
077000
041000
041000
1C1C00
1C1C00
1C1C00
1C1C00
380E00
380E00
380E00
380E00
380E00
E00380
E00380
E00380
E00380
ENDCHAR
STARTCHAR 156
ENCODING 156
SWIDTH 1728 0
DWIDTH 24 0
BBX 21 21 2 24
BITMAP
E00038
E00038
E00038
F000F8
F000F8
F000F8
FC01F8
FC01F8
FC01F8
EE0738
EE0738
EE0738
E38E38
E38E38
E38E38
E18838
E18838
E1F838
E07038
E07038
E07038
ENDCHAR
STARTCHAR 157
ENCODING 157
SWIDTH 1512 0
DWIDTH 21 0
BBX 16 21 2 24
BITMAP
E007
E007
F007
FC07
FC07
FC07
EE07
EE07
E387
E387
E387
E1C7
E1C7
E1C7
E077
E03F
E03F
E03F
E00F
E00F
E007
ENDCHAR
STARTCHAR 158
ENCODING 158
SWIDTH 1008 0
DWIDTH 14 0
BBX 14 21 0 24
BITMAP
FFFC
FFFC
FFFC
0000
0000
0000
0000
0000
0000
0FE0
0FE0
0FE0
0000
0000
0000
0000
0000
0000
FFFC
FFFC
FFFC
ENDCHAR
STARTCHAR 159
ENCODING 159
SWIDTH 1584 0
DWIDTH 22 0
BBX 19 21 2 24
BITMAP
03F800
03F800
1FFF00
7C07C0
7C07C0
7001C0
F001E0
F001E0
E000E0
E000E0
E000E0
E000E0
E000E0
E000E0
F001E0
7001C0
7001C0
7C07C0
1FFF00
1FFF00
03F800
ENDCHAR
STARTCHAR 160
ENCODING 160
SWIDTH 1512 0
DWIDTH 21 0
BBX 16 21 2 24
BITMAP
FFFF
FFFF
FFFF
FFFF
FFFF
E007
E007
E007
E007
E007
E007
E007
E007
E007
E007
E007
E007
E007
E007
E007
E007
ENDCHAR
STARTCHAR 161
ENCODING 161
SWIDTH 1440 0
DWIDTH 20 0
BBX 15 21 4 24
BITMAP
FFF0
FFF0
FFF8
E03E
E03E
E00E
E00E
E00E
E03E
FFF8
FFF8
FFF0
E000
E000
E000
E000
E000
E000
E000
E000
E000
ENDCHAR
STARTCHAR 162
ENCODING 162
SWIDTH 720 0
DWIDTH 10 0
BBX 7 7 2 36
BITMAP
7C
EE
EE
82
EE
EE
7C
ENDCHAR
STARTCHAR 163
ENCODING 163
SWIDTH 1296 0
DWIDTH 18 0
BBX 13 22 2 24
BITMAP
FFF8
FFF8
FFF8
E000
7000
7000
1C00
0E00
0E00
0380
01C0
01C0
0380
0E00
0E00
1C00
7000
7000
E000
FFF8
FFF8
FFF8
ENDCHAR
STARTCHAR 164
ENCODING 164
SWIDTH 1296 0
DWIDTH 18 0
BBX 15 21 2 24
BITMAP
FFFE
FFFE
FFFE
0380
0380
0380
0380
0380
0380
0380
0380
0380
0380
0380
0380
0380
0380
0380
0380
0380
0380
ENDCHAR
STARTCHAR 165
ENCODING 165
SWIDTH 1440 0
DWIDTH 20 0
BBX 19 21 0 24
BITMAP
F000E0
F000E0
F000E0
380380
380380
380380
0E0700
0E0700
0F1F00
071C00
071C00
01F800
00E000
00E000
00E000
00E000
00E000
00E000
00E000
00E000
00E000
ENDCHAR
STARTCHAR 166
ENCODING 166
SWIDTH 1440 0
DWIDTH 20 0
BBX 15 21 2 24
BITMAP
0380
0380
1FF0
3B9C
3B9C
E38E
E38E
E38E
E38E
E38E
E38E
E38E
E38E
E38E
E38E
3B9C
3B9C
1FF0
0380
0380
0380
ENDCHAR
STARTCHAR 167
ENCODING 167
SWIDTH 1440 0
DWIDTH 20 0
BBX 17 21 2 24
BITMAP
E00380
E00380
E00380
380E00
380E00
3C1E00
1C1C00
1C1C00
077000
03E000
03E000
03E000
077000
077000
1C1C00
3C1E00
3C1E00
380E00
E00380
E00380
E00380
ENDCHAR
STARTCHAR 168
ENCODING 168
SWIDTH 1152 0
DWIDTH 16 0
BBX 15 21 0 24
BITMAP
E38E
E38E
E38E
E38E
E38E
E38E
E38E
E38E
E38E
E38E
E38E
E38E
3FFC
3FFC
1FF0
0380
0380
0380
0380
0380
0380
ENDCHAR
STARTCHAR 169
ENCODING 169
SWIDTH 1440 0
DWIDTH 20 0
BBX 15 21 2 24
BITMAP
07E0
07E0
1FF0
381C
381C
E00E
E00E
E00E
E00E
E00E
E00E
E00E
E00E
E00E
381C
1C70
1C70
0460
FC7E
FC7E
FC7E
ENDCHAR
STARTCHAR 170
ENCODING 170
SWIDTH 720 0
DWIDTH 10 0
BBX 7 12 2 33
BITMAP
7C
7C
8E
1E
1E
62
EE
EE
72
00
00
FE
ENDCHAR
STARTCHAR 171
ENCODING 171
SWIDTH 1008 0
DWIDTH 14 0
BBX 11 9 2 27
BITMAP
1CE0
1CE0
3B80
E700
E700
E700
3B80
3B80
1CE0
ENDCHAR
STARTCHAR 172
ENCODING 172
SWIDTH 1152 0
DWIDTH 16 0
BBX 12 21 2 24
BITMAP
0040
0040
0180
0200
0200
0000
0000
0000
7DF0
FFF0
FFF0
E1C0
E1C0
E1C0
E1C0
E1C0
E1C0
E1C0
73F0
73F0
1E70
ENDCHAR
STARTCHAR 173
ENCODING 173
SWIDTH 1080 0
DWIDTH 15 0
BBX 9 19 2 24
BITMAP
0180
0200
0200
0C00
0000
0000
7E00
FF80
FF80
E180
E000
E000
7C00
E000
E000
E180
FF80
FF80
7E00
ENDCHAR
STARTCHAR 174
ENCODING 174
SWIDTH 1080 0
DWIDTH 15 0
BBX 10 22 2 21
BITMAP
0200
0C00
0C00
1000
0000
0000
EF80
FFC0
FFC0
F3C0
E1C0
E1C0
E1C0
E1C0
E1C0
E1C0
E1C0
E1C0
01C0
01C0
01C0
01C0
ENDCHAR
STARTCHAR 175
ENCODING 175
SWIDTH 648 0
DWIDTH 9 0
BBX 6 21 2 24
BITMAP
0C
0C
10
60
60
00
00
00
E0
E0
E0
E0
E0
E0
E0
E0
E0
E0
70
70
10
ENDCHAR
STARTCHAR 176
ENCODING 176
SWIDTH 720 0
DWIDTH 10 0
BBX 7 7 2 36
BITMAP
7C
EE
EE
82
EE
EE
7C
ENDCHAR
STARTCHAR 177
ENCODING 177
SWIDTH 1152 0
DWIDTH 16 0
BBX 12 13 2 24
BITMAP
7DF0
FFF0
FFF0
E1C0
E1C0
E1C0
E1C0
E1C0
E1C0
E1C0
73F0
73F0
1E70
ENDCHAR
STARTCHAR 178
ENCODING 178
SWIDTH 1152 0
DWIDTH 16 0
BBX 11 22 0 21
BITMAP
1F00
FF00
FF00
E0E0
E0E0
E0E0
E0E0
E700
E700
E700
E0E0
E0E0
E0E0
E0E0
E0E0
FF00
FF00
FF00
E000
E000
E000
E000
ENDCHAR
STARTCHAR 179
ENCODING 179
SWIDTH 1152 0
DWIDTH 16 0
BBX 10 15 2 22
BITMAP
E1C0
E1C0
E1C0
E1C0
7380
7380
7380
1E00
1E00
0E00
0E00
0E00
0E00
0E00
0E00
ENDCHAR
STARTCHAR 180
ENCODING 180
SWIDTH 1152 0
DWIDTH 16 0
BBX 10 21 2 24
BITMAP
1E00
1E00
7F80
E1C0
E1C0
E1C0
7000
7000
1C00
7E00
7E00
E380
E1C0
E1C0
E1C0
E1C0
E1C0
E1C0
7F80
7F80
1E00
ENDCHAR
STARTCHAR 181
ENCODING 181
SWIDTH 1080 0
DWIDTH 15 0
BBX 9 13 2 24
BITMAP
7E00
FF80
FF80
E180
E000
E000
7C00
E000
E000
E180
FF80
FF80
7E00
ENDCHAR
STARTCHAR 182
ENCODING 182
SWIDTH 1296 0
DWIDTH 18 0
BBX 9 21 2 22
BITMAP
FF80
FF80
FF80
0F80
1E00
1E00
7C00
E000
E000
E000
E000
E000
E000
7E00
7E00
0380
0380
0380
1F80
1C00
1C00
ENDCHAR
STARTCHAR 183
ENCODING 183
SWIDTH 1080 0
DWIDTH 15 0
BBX 10 16 2 21
BITMAP
EF80
FFC0
FFC0
F3C0
E1C0
E1C0
E1C0
E1C0
E1C0
E1C0
E1C0
E1C0
01C0
01C0
01C0
01C0
ENDCHAR
STARTCHAR 184
ENCODING 184
SWIDTH 1080 0
DWIDTH 15 0
BBX 11 18 0 25
BITMAP
1F00
3F80
3F80
E0E0
E0E0
E0E0
E0E0
FFE0
FFE0
E0E0
E0E0
E0E0
E0E0
E0E0
E0E0
3F80
1F00
1F00
ENDCHAR
STARTCHAR 185
ENCODING 185
SWIDTH 648 0
DWIDTH 9 0
BBX 4 13 2 24
BITMAP
E0
E0
E0
E0
E0
E0
E0
E0
E0
E0
70
70
10
ENDCHAR
STARTCHAR 186
ENCODING 186
SWIDTH 1008 0
DWIDTH 14 0
BBX 11 14 2 25
BITMAP
E0E0
E0E0
E380
E700
E700
FC00
FF00
FF00
E700
E380
E380
E380
E0E0
E0E0
ENDCHAR
STARTCHAR 187
ENCODING 187
SWIDTH 1080 0
DWIDTH 15 0
BBX 9 18 2 24
BITMAP
FC00
FC00
FE00
0380
0380
0380
0380
0380
7F80
FF80
FF80
E380
E380
E380
E380
E380
E380
E380
ENDCHAR
STARTCHAR 188
ENCODING 188
SWIDTH 1152 0
DWIDTH 16 0
BBX 12 16 2 21
BITMAP
E1C0
E1C0
E1C0
E1C0
E1C0
E1C0
E1C0
E1C0
E1C0
FFC0
FE70
FE70
E000
E000
E000
E000
ENDCHAR
STARTCHAR 189
ENCODING 189
SWIDTH 1152 0
DWIDTH 16 0
BBX 14 13 0 24
BITMAP
E01C
E01C
E01C
3870
3870
3870
1CE0
1CE0
1CE0
0780
0780
0780
0300
ENDCHAR
STARTCHAR 190
ENCODING 190
SWIDTH 1296 0
DWIDTH 18 0
BBX 11 21 3 22
BITMAP
FFE0
FFE0
FFE0
3800
E000
E000
E000
3F00
3F00
3F00
E000
E000
E000
3F00
3F00
3F80
0380
0380
3F80
3C00
3C00
ENDCHAR
STARTCHAR 191
ENCODING 191
SWIDTH 1152 0
DWIDTH 16 0
BBX 11 13 3 24
BITMAP
1F00
3F80
3F80
E0E0
E0E0
E0E0
E0E0
E0E0
E0E0
E0E0
3F80
3F80
1F00
ENDCHAR
STARTCHAR 192
ENCODING 192
SWIDTH 1152 0
DWIDTH 16 0
BBX 9 13 2 24
BITMAP
FF80
FF80
FF80
E380
E380
E380
E380
E380
E380
E380
E380
E380
E380
ENDCHAR
STARTCHAR 193
ENCODING 193
SWIDTH 1152 0
DWIDTH 16 0
BBX 10 15 2 22
BITMAP
7F80
FFC0
FFC0
E1C0
E1C0
E1C0
E1C0
E1C0
E1C0
FFC0
FF80
FF80
E000
E000
E000
ENDCHAR
STARTCHAR 194
ENCODING 194
SWIDTH 1296 0
DWIDTH 18 0
BBX 12 16 2 21
BITMAP
1F80
7FF0
7FF0
E070
E000
E000
E000
E000
E000
FF80
7FC0
7FC0
0070
0FF0
0FF0
03C0
ENDCHAR
STARTCHAR 195
ENCODING 195
SWIDTH 1296 0
DWIDTH 18 0
BBX 13 13 2 24
BITMAP
7FF8
7FF8
7FF8
E1C0
E1C0
E1C0
E1C0
E1C0
E1C0
E1C0
7F80
7F80
1E00
ENDCHAR
STARTCHAR 196
ENCODING 196
SWIDTH 1296 0
DWIDTH 18 0
BBX 11 13 3 24
BITMAP
FFE0
FFE0
FFE0
1C00
1C00
1C00
1C00
1C00
1C00
1C00
1F80
1F80
0780
ENDCHAR
STARTCHAR 197
ENCODING 197
SWIDTH 1080 0
DWIDTH 15 0
BBX 12 13 2 24
BITMAP
E070
E070
E070
E070
E070
E070
E070
E070
E070
F1F0
7FC0
7FC0
1F80
ENDCHAR
STARTCHAR 198
ENCODING 198
SWIDTH 1440 0
DWIDTH 20 0
BBX 14 16 2 21
BITMAP
1FE0
3FF0
3FF0
E31C
E31C
E31C
E31C
E31C
E31C
E31C
3FF0
3FF0
1FE0
0300
0300
0300
ENDCHAR
STARTCHAR 199
ENCODING 199
SWIDTH 1080 0
DWIDTH 15 0
BBX 12 15 2 24
BITMAP
E070
E070
F1F0
71C0
71C0
1F80
0E00
0E00
0E00
1F80
1F80
71C0
F1F0
F1F0
E070
ENDCHAR
STARTCHAR 200
ENCODING 200
SWIDTH 1440 0
DWIDTH 20 0
BBX 14 15 2 21
BITMAP
E31C
E31C
E31C
E31C
E31C
E31C
E31C
E31C
E31C
3FF0
3FF0
1FE0
0300
0300
0300
ENDCHAR
STARTCHAR 201
ENCODING 201
SWIDTH 1440 0
DWIDTH 20 0
BBX 14 13 2 24
BITMAP
3870
E01C
E01C
E01C
E01C
E01C
E31C
E31C
E31C
E31C
3CF0
3CF0
1CE0
ENDCHAR
STARTCHAR 202
ENCODING 202
SWIDTH 648 0
DWIDTH 9 0
BBX 6 18 0 24
BITMAP
C4
C4
00
00
00
38
38
38
38
38
38
38
38
38
38
1C
1C
04
ENDCHAR
STARTCHAR 203
ENCODING 203
SWIDTH 1080 0
DWIDTH 15 0
BBX 12 19 2 24
BITMAP
E070
0000
0000
0000
0000
0000
E070
E070
E070
E070
E070
E070
E070
E070
E070
F1F0
7FC0
7FC0
1F80
ENDCHAR
STARTCHAR 204
ENCODING 204
SWIDTH 1152 0
DWIDTH 16 0
BBX 11 21 3 24
BITMAP
0060
0060
0080
0300
0300
0000
0000
0000
1F00
3F80
3F80
E0E0
E0E0
E0E0
E0E0
E0E0
E0E0
E0E0
3F80
3F80
1F00
ENDCHAR
STARTCHAR 205
ENCODING 205
SWIDTH 1080 0
DWIDTH 15 0
BBX 12 21 2 24
BITMAP
0180
0180
0200
0C00
0C00
0000
0000
0000
E070
E070
E070
E070
E070
E070
E070
E070
E070
F1F0
7FC0
7FC0
1F80
ENDCHAR
STARTCHAR 206
ENCODING 206
SWIDTH 1440 0
DWIDTH 20 0
BBX 14 21 2 24
BITMAP
0060
0060
0080
0300
0300
0000
0000
0000
3870
E01C
E01C
E01C
E01C
E01C
E31C
E31C
E31C
E31C
3CF0
3CF0
1CE0
ENDCHAR
STARTCHAR 207
ENCODING 207
SWIDTH 648 0
DWIDTH 9 0
BBX 9 24 0 24
BITMAP
E380
E380
0000
1C00
1C00
1C00
1C00
1C00
1C00
1C00
1C00
1C00
1C00
1C00
1C00
1C00
1C00
1C00
1C00
1C00
1C00
1C00
1C00
1C00
ENDCHAR
STARTCHAR 208
ENCODING 208
SWIDTH 1512 0
DWIDTH 21 0
BBX 20 21 0 24
BITMAP
3FFE00
3FFE00
3FFF80
3803C0
3803C0
3801C0
380070
380070
380070
FF8070
FF8070
FF8070
380070
380070
380070
3801C0
3801C0
3803C0
3FFF80
3FFF80
3FFE00
ENDCHAR
STARTCHAR 209
ENCODING 209
SWIDTH 1512 0
DWIDTH 21 0
BBX 16 24 2 24
BITMAP
0C70
0C70
0000
E007
E007
F007
FC07
FC07
FC07
EE07
EE07
E387
E387
E387
E1C7
E1C7
E1C7
E077
E03F
E03F
E03F
E00F
E00F
E007
ENDCHAR
STARTCHAR 210
ENCODING 210
SWIDTH 1584 0
DWIDTH 22 0
BBX 19 24 2 24
BITMAP
01C000
01C000
000000
03F800
03F800
1FFF00
7C07C0
7C07C0
7001C0
F001E0
F001E0
E000E0
E000E0
E000E0
E000E0
E000E0
E000E0
F001E0
7001C0
7001C0
7C07C0
1FFF00
1FFF00
03F800
ENDCHAR
STARTCHAR 211
ENCODING 211
SWIDTH 1584 0
DWIDTH 22 0
BBX 19 24 2 24
BITMAP
01C000
01C000
000000
03F800
03F800
1FFF00
7C07C0
7C07C0
7001C0
F001E0
F001E0
E000E0
E000E0
E000E0
E000E0
E000E0
E000E0
F001E0
7001C0
7001C0
7C07C0
1FFF00
1FFF00
03F800
ENDCHAR
STARTCHAR 212
ENCODING 212
SWIDTH 1584 0
DWIDTH 22 0
BBX 19 24 2 24
BITMAP
038E00
038E00
000000
03F800
03F800
1FFF00
7C07C0
7C07C0
7001C0
F001E0
F001E0
E000E0
E000E0
E000E0
E000E0
E000E0
E000E0
F001E0
7001C0
7001C0
7C07C0
1FFF00
1FFF00
03F800
ENDCHAR
STARTCHAR 213
ENCODING 213
SWIDTH 1584 0
DWIDTH 22 0
BBX 19 24 2 24
BITMAP
023800
023800
000000
03F800
03F800
1FFF00
7C07C0
7C07C0
7001C0
F001E0
F001E0
E000E0
E000E0
E000E0
E000E0
E000E0
E000E0
F001E0
7001C0
7001C0
7C07C0
1FFF00
1FFF00
03F800
ENDCHAR
STARTCHAR 214
ENCODING 214
SWIDTH 1584 0
DWIDTH 22 0
BBX 19 24 2 24
BITMAP
038E00
038E00
000000
03F800
03F800
1FFF00
7C07C0
7C07C0
7001C0
F001E0
F001E0
E000E0
E000E0
E000E0
E000E0
E000E0
E000E0
F001E0
7001C0
7001C0
7C07C0
1FFF00
1FFF00
03F800
ENDCHAR
STARTCHAR 215
ENCODING 215
SWIDTH 1080 0
DWIDTH 15 0
BBX 15 13 0 24
BITMAP
E00E
381C
381C
1C70
07E0
07E0
0380
07E0
07E0
1C70
381C
381C
E00E
ENDCHAR
STARTCHAR 216
ENCODING 216
SWIDTH 1584 0
DWIDTH 22 0
BBX 21 21 0 24
BITMAP
00FE38
00FE38
07FFF0
1F01C0
1F01C0
1C03F0
3C0E78
3C0E78
381C38
387038
387038
386038
38E038
38E038
3B8078
1F0070
1F0070
1F01F0
3BFFC0
3BFFC0
E0FE00
ENDCHAR
STARTCHAR 217
ENCODING 217
SWIDTH 1512 0
DWIDTH 21 0
BBX 16 24 2 24
BITMAP
01C0
01C0
0000
E007
E007
E007
E007
E007
E007
E007
E007
E007
E007
E007
E007
E007
E007
E007
E007
E007
700E
7FFE
7FFE
0FF0
ENDCHAR
STARTCHAR 218
ENCODING 218
SWIDTH 1512 0
DWIDTH 21 0
BBX 16 24 2 24
BITMAP
0380
0380
0000
E007
E007
E007
E007
E007
E007
E007
E007
E007
E007
E007
E007
E007
E007
E007
E007
E007
700E
7FFE
7FFE
0FF0
ENDCHAR
STARTCHAR 219
ENCODING 219
SWIDTH 1512 0
DWIDTH 21 0
BBX 16 24 2 24
BITMAP
0E38
0E38
0000
E007
E007
E007
E007
E007
E007
E007
E007
E007
E007
E007
E007
E007
E007
E007
E007
E007
700E
7FFE
7FFE
0FF0
ENDCHAR
STARTCHAR 220
ENCODING 220
SWIDTH 1512 0
DWIDTH 21 0
BBX 16 24 2 24
BITMAP
1C38
1C38
0000
E007
E007
E007
E007
E007
E007
E007
E007
E007
E007
E007
E007
E007
E007
E007
E007
E007
700E
7FFE
7FFE
0FF0
ENDCHAR
STARTCHAR 221
ENCODING 221
SWIDTH 1440 0
DWIDTH 20 0
BBX 19 24 0 24
BITMAP
00E000
00E000
000000
F000E0
F000E0
F000E0
380380
380380
380380
0E0700
0E0700
0F1F00
071C00
071C00
01F800
00E000
00E000
00E000
00E000
00E000
00E000
00E000
00E000
00E000
ENDCHAR
STARTCHAR 222
ENCODING 222
SWIDTH 1296 0
DWIDTH 18 0
BBX 15 21 2 24
BITMAP
E000
E000
E000
E000
E000
FFF0
FFF8
FFF8
E03E
E00E
E00E
E00E
E03E
E03E
FFF8
FFF0
FFF0
E000
E000
E000
E000
ENDCHAR
STARTCHAR 223
ENCODING 223
SWIDTH 1008 0
DWIDTH 14 0
BBX 11 21 2 24
BITMAP
1F00
1F00
3F80
E0E0
E0E0
E0E0
E0E0
E0E0
E0E0
E780
E780
E780
E0E0
E0E0
E0E0
E0E0
E0E0
E0E0
E7E0
E7E0
E780
ENDCHAR
STARTCHAR 224
ENCODING 224
SWIDTH 1152 0
DWIDTH 16 0
BBX 13 21 2 24
BITMAP
1C00
1C00
0E00
0380
0380
0000
7FC0
7FC0
F1F0
E070
E070
01F0
7FF0
7FF0
F070
E070
E070
E070
F1F8
F1F8
7E38
ENDCHAR
STARTCHAR 225
ENCODING 225
SWIDTH 1152 0
DWIDTH 16 0
BBX 13 21 2 24
BITMAP
0380
0380
0E00
1C00
1C00
0000
7FC0
7FC0
F1F0
E070
E070
01F0
7FF0
7FF0
F070
E070
E070
E070
F1F8
F1F8
7E38
ENDCHAR
STARTCHAR 226
ENCODING 226
SWIDTH 1152 0
DWIDTH 16 0
BBX 13 21 2 24
BITMAP
0E00
0E00
1F80
71C0
71C0
0000
7FC0
7FC0
F1F0
E070
E070
01F0
7FF0
7FF0
F070
E070
E070
E070
F1F8
F1F8
7E38
ENDCHAR
STARTCHAR 227
ENCODING 227
SWIDTH 1152 0
DWIDTH 16 0
BBX 13 21 2 24
BITMAP
1C40
1C40
6E40
6380
6380
0000
7FC0
7FC0
F1F0
E070
E070
01F0
7FF0
7FF0
F070
E070
E070
E070
F1F8
F1F8
7E38
ENDCHAR
STARTCHAR 228
ENCODING 228
SWIDTH 1152 0
DWIDTH 16 0
BBX 13 21 2 24
BITMAP
71C0
71C0
71C0
0000
0000
0000
7FC0
7FC0
F1F0
E070
E070
01F0
7FF0
7FF0
F070
E070
E070
E070
F1F8
F1F8
7E38
ENDCHAR
STARTCHAR 229
ENCODING 229
SWIDTH 1152 0
DWIDTH 16 0
BBX 13 21 2 24
BITMAP
0E00
0E00
1180
1180
1180
0E00
7FC0
7FC0
F1F0
E070
E070
01F0
7FF0
7FF0
F070
E070
E070
E070
F1F8
F1F8
7E38
ENDCHAR
STARTCHAR 230
ENCODING 230
SWIDTH 1872 0
DWIDTH 26 0
BBX 21 15 4 24
BITMAP
7FCFC0
7FCFC0
F1FFE0
E07038
E07038
01F038
7FFFF8
7FFFF8
F07000
E07000
E07000
E07838
F1FFF8
F1FFF8
7E4FC0
ENDCHAR
STARTCHAR 231
ENCODING 231
SWIDTH 1080 0
DWIDTH 15 0
BBX 12 21 2 18
BITMAP
1FC0
1FC0
7FF0
7070
7070
E000
E000
E000
E000
E000
E000
7070
7FF0
7FF0
1FC0
0E00
0E00
0380
7380
7380
7E00
ENDCHAR
STARTCHAR 232
ENCODING 232
SWIDTH 1080 0
DWIDTH 15 0
BBX 12 21 2 24
BITMAP
1C00
1C00
0E00
0380
0380
0000
1F80
1F80
7FC0
E070
E070
E070
FFF0
FFF0
E000
E000
E000
F070
7FF0
7FF0
1F80
ENDCHAR
STARTCHAR 233
ENCODING 233
SWIDTH 1080 0
DWIDTH 15 0
BBX 12 21 2 24
BITMAP
0380
0380
0E00
1C00
1C00
0000
1F80
1F80
7FC0
E070
E070
E070
FFF0
FFF0
E000
E000
E000
F070
7FF0
7FF0
1F80
ENDCHAR
STARTCHAR 234
ENCODING 234
SWIDTH 1080 0
DWIDTH 15 0
BBX 12 21 2 24
BITMAP
0E00
0E00
1F80
71C0
71C0
0000
1F80
1F80
7FC0
E070
E070
E070
FFF0
FFF0
E000
E000
E000
F070
7FF0
7FF0
1F80
ENDCHAR
STARTCHAR 235
ENCODING 235
SWIDTH 1080 0
DWIDTH 15 0
BBX 12 21 2 24
BITMAP
71C0
71C0
71C0
0000
0000
0000
1F80
1F80
7FC0
E070
E070
E070
FFF0
FFF0
E000
E000
E000
F070
7FF0
7FF0
1F80
ENDCHAR
STARTCHAR 236
ENCODING 236
SWIDTH 432 0
DWIDTH 6 0
BBX 6 21 0 24
BITMAP
E0
E0
38
1C
1C
00
38
38
38
38
38
38
38
38
38
38
38
38
38
38
38
ENDCHAR
STARTCHAR 237
ENCODING 237
SWIDTH 432 0
DWIDTH 6 0
BBX 6 21 0 24
BITMAP
1C
1C
38
E0
E0
00
38
38
38
38
38
38
38
38
38
38
38
38
38
38
38
ENDCHAR
STARTCHAR 238
ENCODING 238
SWIDTH 576 0
DWIDTH 8 0
BBX 8 21 0 24
BITMAP
38
38
FE
C7
C7
00
38
38
38
38
38
38
38
38
38
38
38
38
38
38
38
ENDCHAR
STARTCHAR 239
ENCODING 239
SWIDTH 576 0
DWIDTH 8 0
BBX 8 21 0 24
BITMAP
F7
F7
F7
00
00
00
38
38
38
38
38
38
38
38
38
38
38
38
38
38
38
ENDCHAR
STARTCHAR 240
ENCODING 240
SWIDTH 1152 0
DWIDTH 16 0
BBX 13 21 2 24
BITMAP
7000
7000
1DC0
1E00
1E00
6380
1FC0
1FC0
7FF0
7070
7070
E038
E038
E038
E038
E038
E038
7070
7FF0
7FF0
1FC0
ENDCHAR
STARTCHAR 241
ENCODING 241
SWIDTH 1080 0
DWIDTH 15 0
BBX 12 21 2 24
BITMAP
1C40
1C40
6E40
6380
6380
0000
EFC0
EFC0
FFF0
F070
F070
E070
E070
E070
E070
E070
E070
E070
E070
E070
E070
ENDCHAR
STARTCHAR 242
ENCODING 242
SWIDTH 1152 0
DWIDTH 16 0
BBX 13 21 2 24
BITMAP
1C00
1C00
0E00
0380
0380
0000
1FC0
1FC0
7FF0
7070
7070
E038
E038
E038
E038
E038
E038
7070
7FF0
7FF0
1FC0
ENDCHAR
STARTCHAR 243
ENCODING 243
SWIDTH 1152 0
DWIDTH 16 0
BBX 13 21 2 24
BITMAP
01C0
01C0
0380
0E00
0E00
0000
1FC0
1FC0
7FF0
7070
7070
E038
E038
E038
E038
E038
E038
7070
7FF0
7FF0
1FC0
ENDCHAR
STARTCHAR 244
ENCODING 244
SWIDTH 1152 0
DWIDTH 16 0
BBX 13 21 2 24
BITMAP
0E00
0E00
1F80
71C0
71C0
0000
1FC0
1FC0
7FF0
7070
7070
E038
E038
E038
E038
E038
E038
7070
7FF0
7FF0
1FC0
ENDCHAR
STARTCHAR 245
ENCODING 245
SWIDTH 1152 0
DWIDTH 16 0
BBX 13 21 2 24
BITMAP
1C40
1C40
6E40
6380
6380
0000
1FC0
1FC0
7FF0
7070
7070
E038
E038
E038
E038
E038
E038
7070
7FF0
7FF0
1FC0
ENDCHAR
STARTCHAR 246
ENCODING 246
SWIDTH 1152 0
DWIDTH 16 0
BBX 13 21 2 24
BITMAP
1C70
1C70
1C70
0000
0000
0000
1FC0
1FC0
7FF0
7070
7070
E038
E038
E038
E038
E038
E038
7070
7FF0
7FF0
1FC0
ENDCHAR
STARTCHAR 247
ENCODING 247
SWIDTH 1080 0
DWIDTH 15 0
BBX 12 12 2 25
BITMAP
0E00
0E00
0E00
0000
FFF0
FFF0
FFF0
0000
0000
0E00
0E00
0E00
ENDCHAR
STARTCHAR 248
ENCODING 248
SWIDTH 1152 0
DWIDTH 16 0
BBX 16 15 0 24
BITMAP
03E3
03E3
1FFE
1C1C
1C1C
387E
38EE
38EE
3B8E
3F0E
3F0E
1C1C
3FFC
3FFC
E3E0
ENDCHAR
STARTCHAR 249
ENCODING 249
SWIDTH 1080 0
DWIDTH 15 0
BBX 12 21 2 24
BITMAP
1C00
1C00
0E00
0380
0380
0000
E070
E070
E070
E070
E070
E070
E070
E070
E070
E070
E070
E1F0
FFF0
FFF0
7E70
ENDCHAR
STARTCHAR 250
ENCODING 250
SWIDTH 1080 0
DWIDTH 15 0
BBX 12 21 2 24
BITMAP
01C0
01C0
0380
0E00
0E00
0000
E070
E070
E070
E070
E070
E070
E070
E070
E070
E070
E070
E1F0
FFF0
FFF0
7E70
ENDCHAR
STARTCHAR 251
ENCODING 251
SWIDTH 1080 0
DWIDTH 15 0
BBX 12 21 2 24
BITMAP
0E00
0E00
1F80
71C0
71C0
0000
E070
E070
E070
E070
E070
E070
E070
E070
E070
E070
E070
E1F0
FFF0
FFF0
7E70
ENDCHAR
STARTCHAR 252
ENCODING 252
SWIDTH 1080 0
DWIDTH 15 0
BBX 12 21 2 24
BITMAP
71C0
71C0
71C0
0000
0000
0000
E070
E070
E070
E070
E070
E070
E070
E070
E070
E070
E070
E1F0
FFF0
FFF0
7E70
ENDCHAR
STARTCHAR 253
ENCODING 253
SWIDTH 1080 0
DWIDTH 15 0
BBX 12 27 2 18
BITMAP
01C0
01C0
0380
0E00
0E00
0000
E070
E070
E070
E070
E070
71C0
71C0
71C0
71C0
1180
1180
1F80
0E00
0E00
0E00
0E00
0E00
0E00
7C00
7C00
7C00
ENDCHAR
STARTCHAR 254
ENCODING 254
SWIDTH 1152 0
DWIDTH 16 0
BBX 13 27 2 18
BITMAP
E000
E000
E000
E000
E000
E000
EFC0
EFC0
FFF0
F070
F070
E038
E038
E038
E038
E038
E038
F070
FFF0
FFF0
EFC0
E000
E000
E000
E000
E000
E000
ENDCHAR
STARTCHAR 255
ENCODING 255
SWIDTH 1080 0
DWIDTH 15 0
BBX 12 27 2 18
BITMAP
71C0
71C0
71C0
0000
0000
0000
E070
E070
E070
E070
E070
71C0
71C0
71C0
71C0
1180
1180
1F80
0E00
0E00
0E00
0E00
0E00
0E00
7C00
7C00
7C00
ENDCHAR
ENDFONT
